<svg xmlns="http://www.w3.org/2000/svg" viewBox="0 0 512 512">
  <path fill="#002395" d="M0 0h512v512H0z"/>
  <path fill="#fecb00" d="M154 0h258L154 512z"/>
  <g fill="#fff">
    <path d="m58 28 11 23 25 3-18 18 4 25-22-12-22 12 4-25-18-18 25-3z"/>
    <path d="m94 92 11 23 25 3-18 18 4 25-22-12-22 12 4-25-18-18 25-3z"/>
    <path d="m130 156 11 23 25 3-18 18 4 25-22-12-22 12 4-25-18-18 25-3z"/>
    <path d="m166 220 11 23 25 3-18 18 4 25-22-12-22 12 4-25-18-18 25-3z"/>
    <path d="m202 284 11 23 25 3-18 18 4 25-22-12-22 12 4-25-18-18 25-3z"/>
    <path d="m238 348 11 23 25 3-18 18 4 25-22-12-22 12 4-25-18-18 25-3z"/>
  </g>
</svg>
