<svg xmlns="http://www.w3.org/2000/svg" viewBox="0 0 512 512">
  <path fill="#003893" d="M0 0h512v512H0z"/>
  <path fill="#fff" d="M0 284h512v48H0z"/>
  <path fill="#cf2027" d="M0 300h512v16H0z"/>
  <path fill="#fff" d="M0 348h512v48H0z"/>
  <g fill="#f7d116" transform="translate(151 318)">
    <path d="m0-75 9 26h27L14-33l8 26-22-16-22 16 8-26-22-16h27z"/>
    <path d="m53-54 9 26h27L67-12l8 26-22-16-22 16 8-26-22-16h27z"/>
    <path d="m75 0 9 26h27L89 42l8 26-22-16-22 16 8-26-22-16h27z"/>
    <path d="m53 54 9 26h27L67 96l8 26-22-16-22 16 8-26-22-16h27z"/>
    <path d="m0 75 9 26h27L14 117l8 26-22-16-22 16 8-26-22-16h27z"/>
    <path d="m-53 54 9 26h27l-22 16 8 26-22-16-22 16 8-26-22-16h27z"/>
    <path d="m-75 0 9 26h27l-22 16 8 26-22-16-22 16 8-26-22-16h27z"/>
    <path d="m-53-54 9 26h27l-22 16 8 26-22-16-22 16 8-26-22-16h27z"/>
  </g>
</svg>
